<svg width="692.4" height="71.802" viewBox="0 0 692.4 71.802" xmlns="http://www.w3.org/2000/svg">
	<g id="svgGroup" stroke-linecap="round" fill-rule="evenodd" font-size="9pt" stroke="#000" stroke-width="0.25mm" fill="none" style="stroke:#000;stroke-width:0.25mm;fill:none">
		<path d="M 0 0.7 L 43 0.7 L 43 2.5 L 22.5 2.5 L 22.5 71.1 L 20.5 71.1 L 20.5 2.5 L 0 2.5 L 0 0.7 Z" id="0" vector-effect="non-scaling-stroke"/>
		<path d="M 94.5 71.1 L 92 71.1 L 73.2 40.4 L 71.3 40.4 L 55.5 40.4 L 55.5 71.1 L 53.5 71.1 L 53.5 0.7 L 71.1 0.7 A 40.368 40.368 0 0 1 77.463 1.167 Q 80.785 1.699 83.428 2.835 A 16.833 16.833 0 0 1 88.35 6 A 17.493 17.493 0 0 1 93.6 15.88 A 25.491 25.491 0 0 1 94 20.5 A 24.409 24.409 0 0 1 93.339 26.341 A 17.039 17.039 0 0 1 89.2 34.1 Q 84.653 38.931 76.427 40.083 A 34.288 34.288 0 0 1 75.5 40.2 L 94.5 71.1 Z M 55.5 38.5 L 71.3 38.5 A 34.469 34.469 0 0 0 77.098 38.045 Q 83.169 37.007 86.75 33.6 A 16.285 16.285 0 0 0 91.654 23.93 A 23.014 23.014 0 0 0 91.9 20.5 A 21.605 21.605 0 0 0 90.681 12.926 Q 86.865 2.7 71.1 2.7 L 55.5 2.7 L 55.5 38.5 Z" id="1" vector-effect="non-scaling-stroke"/>
		<path d="M 107 0.7 L 109 0.7 L 109 71.1 L 107 71.1 L 107 0.7 Z" id="2" vector-effect="non-scaling-stroke"/>
		<path d="M 143.8 39.4 L 128 39.4 L 128 71.1 L 126 71.1 L 126 0.7 L 143.8 0.7 Q 150.89 0.7 155.683 2.606 A 16.251 16.251 0 0 1 160.85 5.8 A 16.669 16.669 0 0 1 165.713 14.504 A 25.193 25.193 0 0 1 166.3 20.1 Q 166.3 27.3 163.16 31.8 A 14.479 14.479 0 0 1 160.6 34.6 Q 154.9 39.4 143.8 39.4 Z M 143.8 2.7 L 128 2.7 L 128 37.3 L 143.8 37.3 Q 154.284 37.3 159.161 33.06 A 12.026 12.026 0 0 0 159.45 32.8 A 14.661 14.661 0 0 0 163.753 25.192 A 22.316 22.316 0 0 0 164.3 20.1 Q 164.3 13.81 161.732 9.767 A 13.202 13.202 0 0 0 159.5 7.1 Q 154.7 2.7 143.8 2.7 Z" id="3" vector-effect="non-scaling-stroke"/>
		<path d="M 172.3 0.7 L 215.3 0.7 L 215.3 2.5 L 194.8 2.5 L 194.8 71.1 L 192.8 71.1 L 192.8 2.5 L 172.3 2.5 L 172.3 0.7 Z" id="4" vector-effect="non-scaling-stroke"/>
		<path d="M 225.3 0.7 L 227.3 0.7 L 227.3 44.4 A 48.642 48.642 0 0 0 227.763 51.36 Q 228.278 54.913 229.366 57.749 A 18.146 18.146 0 0 0 233.15 63.9 A 19.392 19.392 0 0 0 243.98 69.57 A 28.003 28.003 0 0 0 249 70 A 25.378 25.378 0 0 0 255.709 69.16 A 18.438 18.438 0 0 0 264.5 63.9 A 18.236 18.236 0 0 0 268.191 57.739 Q 269.242 54.922 269.744 51.399 A 49.83 49.83 0 0 0 270.2 44.4 L 270.2 0.7 L 272.2 0.7 L 272.2 44.4 A 50.583 50.583 0 0 1 271.672 51.977 Q 271.085 55.842 269.845 58.933 A 20.062 20.062 0 0 1 266.05 65.1 A 20.173 20.173 0 0 1 254.756 71.27 A 29.758 29.758 0 0 1 249 71.8 A 28.4 28.4 0 0 1 241.458 70.851 A 20.754 20.754 0 0 1 231.7 65.05 A 20.864 20.864 0 0 1 227.228 57.504 Q 226.087 54.264 225.621 50.27 A 50.758 50.758 0 0 1 225.3 44.4 L 225.3 0.7 Z" id="5" vector-effect="non-scaling-stroke"/>
		<path d="M 306.5 39.4 L 290.7 39.4 L 290.7 71.1 L 288.7 71.1 L 288.7 0.7 L 306.5 0.7 Q 313.59 0.7 318.383 2.606 A 16.251 16.251 0 0 1 323.55 5.8 A 16.669 16.669 0 0 1 328.413 14.504 A 25.193 25.193 0 0 1 329 20.1 Q 329 27.3 325.86 31.8 A 14.479 14.479 0 0 1 323.3 34.6 Q 317.6 39.4 306.5 39.4 Z M 306.5 2.7 L 290.7 2.7 L 290.7 37.3 L 306.5 37.3 Q 316.984 37.3 321.861 33.06 A 12.026 12.026 0 0 0 322.15 32.8 A 14.661 14.661 0 0 0 326.453 25.192 A 22.316 22.316 0 0 0 327 20.1 Q 327 13.81 324.432 9.767 A 13.202 13.202 0 0 0 322.2 7.1 Q 317.4 2.7 306.5 2.7 Z" id="6" vector-effect="non-scaling-stroke"/>
		<path d="M 387.8 71.1 L 380.5 51.7 L 345.7 51.7 L 338.3 71.1 L 336 71.1 L 362.1 2.8 L 364.1 2.8 L 390.1 71.1 L 387.8 71.1 Z M 346.4 49.9 L 379.8 49.9 L 363.1 6 L 346.4 49.9 Z" id="7" vector-effect="non-scaling-stroke"/>
		<path d="M 442.6 71.1 L 440.1 71.1 L 421.3 40.4 L 419.4 40.4 L 403.6 40.4 L 403.6 71.1 L 401.6 71.1 L 401.6 0.7 L 419.2 0.7 A 40.368 40.368 0 0 1 425.563 1.167 Q 428.885 1.699 431.528 2.835 A 16.833 16.833 0 0 1 436.45 6 A 17.493 17.493 0 0 1 441.7 15.88 A 25.491 25.491 0 0 1 442.1 20.5 A 24.409 24.409 0 0 1 441.439 26.341 A 17.039 17.039 0 0 1 437.3 34.1 Q 432.753 38.931 424.527 40.083 A 34.288 34.288 0 0 1 423.6 40.2 L 442.6 71.1 Z M 403.6 38.5 L 419.4 38.5 A 34.469 34.469 0 0 0 425.198 38.045 Q 431.269 37.007 434.85 33.6 A 16.285 16.285 0 0 0 439.754 23.93 A 23.014 23.014 0 0 0 440 20.5 A 21.605 21.605 0 0 0 438.781 12.926 Q 434.965 2.7 419.2 2.7 L 403.6 2.7 L 403.6 38.5 Z" id="8" vector-effect="non-scaling-stroke"/>
		<path d="M 501.4 71.1 L 494.1 51.7 L 459.3 51.7 L 451.9 71.1 L 449.6 71.1 L 475.7 2.8 L 477.7 2.8 L 503.7 71.1 L 501.4 71.1 Z M 460 49.9 L 493.4 49.9 L 476.7 6 L 460 49.9 Z" id="9" vector-effect="non-scaling-stroke"/>
		<path d="M 533.7 71.1 L 515.2 71.1 L 515.2 0.7 L 533.7 0.7 A 57.718 57.718 0 0 1 544.225 1.599 Q 550.212 2.711 554.898 5.198 A 28.486 28.486 0 0 1 561.4 9.9 Q 570.565 18.776 570.888 34.725 A 58.019 58.019 0 0 1 570.9 35.9 A 47.707 47.707 0 0 1 569.828 46.33 Q 568.238 53.426 564.292 58.636 A 28.441 28.441 0 0 1 561.4 61.9 A 30.327 30.327 0 0 1 549.29 68.942 Q 542.516 71.1 533.7 71.1 Z M 533.7 2.5 L 517.2 2.5 L 517.2 69.3 L 533.7 69.3 Q 551.1 69.3 560 60.5 A 28.823 28.823 0 0 0 567.648 46.766 Q 568.812 42.173 568.894 36.729 A 55.126 55.126 0 0 0 568.9 35.9 Q 568.9 22.125 562.135 13.671 A 27.448 27.448 0 0 0 560 11.3 A 28.222 28.222 0 0 0 548.575 4.569 Q 544.149 3.147 538.778 2.702 A 61.6 61.6 0 0 0 533.7 2.5 Z" id="10" vector-effect="non-scaling-stroke"/>
		<path d="M 585.4 0.7 L 587.4 0.7 L 587.4 71.1 L 585.4 71.1 L 585.4 0.7 Z" id="11" vector-effect="non-scaling-stroke"/>
		<path d="M 601.2 54.5 L 603.2 54.5 A 17.942 17.942 0 0 0 604.572 59.203 A 22.456 22.456 0 0 0 605.75 61.5 Q 607.713 64.852 611.876 67.286 A 24.948 24.948 0 0 0 612.25 67.5 A 17.93 17.93 0 0 0 616.806 69.253 Q 618.914 69.767 621.382 69.927 A 35.706 35.706 0 0 0 623.7 70 Q 629.3 70 633.6 67.85 A 17.897 17.897 0 0 0 637.554 65.202 A 14.933 14.933 0 0 0 640.2 62.1 Q 642.5 58.5 642.5 54.1 Q 642.5 49.745 640.982 46.761 A 10.688 10.688 0 0 0 639.9 45.05 Q 637.3 41.7 633.45 40.1 Q 629.685 38.536 623.387 36.876 A 155.399 155.399 0 0 0 623.1 36.8 A 119.679 119.679 0 0 1 619.114 35.675 Q 615.019 34.438 612.2 33.2 A 17.453 17.453 0 0 1 605.253 27.654 A 18.872 18.872 0 0 1 605.25 27.65 Q 602.801 24.428 602.456 19.248 A 26.349 26.349 0 0 1 602.4 17.5 Q 602.4 12.9 604.95 8.85 Q 607.5 4.8 612.25 2.4 Q 617 0 623.1 0 Q 629.191 0 633.641 2.124 A 18.475 18.475 0 0 1 633.8 2.2 Q 638.3 4.4 640.85 7.75 A 19.107 19.107 0 0 1 643.261 11.852 A 16.391 16.391 0 0 1 644.2 14.8 L 642.2 14.8 Q 641.5 11.9 639.3 8.9 A 14.904 14.904 0 0 0 636.224 5.826 A 20.742 20.742 0 0 0 633 3.85 A 18.596 18.596 0 0 0 628.184 2.255 Q 625.83 1.8 623.1 1.8 A 23.234 23.234 0 0 0 616.772 2.64 A 20.689 20.689 0 0 0 613.75 3.75 A 17.42 17.42 0 0 0 608.758 7.14 A 16.165 16.165 0 0 0 606.95 9.25 A 13.611 13.611 0 0 0 604.416 16.772 A 16.846 16.846 0 0 0 604.4 17.5 A 20.59 20.59 0 0 0 604.728 21.288 Q 605.124 23.405 606 25.096 A 11.074 11.074 0 0 0 607.05 26.75 Q 609.7 30.2 613.6 31.85 A 49.099 49.099 0 0 0 616.588 32.991 Q 618.161 33.538 620.014 34.09 A 122.272 122.272 0 0 0 624 35.2 A 125.613 125.613 0 0 1 627.981 36.32 Q 632.001 37.528 634.761 38.712 A 37.591 37.591 0 0 1 634.85 38.75 Q 638.9 40.5 641.7 44.15 A 12.578 12.578 0 0 1 643.778 48.385 Q 644.274 50.115 644.429 52.168 A 25.658 25.658 0 0 1 644.5 54.1 A 16.659 16.659 0 0 1 642.57 61.829 A 19.883 19.883 0 0 1 642.15 62.6 Q 639.8 66.7 635.1 69.25 Q 630.533 71.728 624.078 71.798 A 34.765 34.765 0 0 1 623.7 71.8 A 31.542 31.542 0 0 1 617.987 71.308 A 23.149 23.149 0 0 1 612.05 69.4 Q 607.1 67 604.4 63.05 Q 601.7 59.1 601.2 54.5 Z" id="12" vector-effect="non-scaling-stroke"/>
		<path d="M 692.4 2.5 L 660 2.5 L 660 35 L 689.4 35 L 689.4 36.8 L 660 36.8 L 660 69.3 L 692.4 69.3 L 692.4 71.1 L 658 71.1 L 658 0.7 L 692.4 0.7 L 692.4 2.5 Z" id="13" vector-effect="non-scaling-stroke"/>
	</g>
</svg>